<svg width="181" height="177" viewBox="0 0 181 177" fill="none" xmlns="http://www.w3.org/2000/svg">
<circle cx="62.5" cy="62.5" r="62.5" fill="#E5E5E5" fill-opacity="0.25"/>
<g clip-path="url(#clip0)">
<path d="M54.0408 113.125C52.8728 113.125 51.7048 112.681 50.8167 111.787L39.015 99.985C36.4661 97.4422 35 93.9199 35 90.3125C35 86.7051 36.4661 83.1828 39.0211 80.6339L60.3067 59.3483C65.3923 54.2505 74.5599 54.2444 79.6578 59.3544L88.8375 68.5342C90.6199 70.3166 90.6199 73.2062 88.8375 74.9886C87.0551 76.771 84.1655 76.771 82.3831 74.9886L73.1973 65.8028C71.4878 64.0873 68.4644 64.0933 66.7672 65.7967L45.4694 87.0944C44.6117 87.9461 44.125 89.1202 44.125 90.3125C44.125 91.5048 44.6117 92.6789 45.4633 93.5245L57.265 105.332C59.0474 107.115 59.0474 110.004 57.265 111.787C56.3768 112.681 55.2028 113.125 54.0408 113.125Z" fill="#223324"/>
<path d="M152.104 164.833C150.936 164.833 149.768 164.389 148.88 163.495L118.463 133.078C116.681 131.296 116.681 128.406 118.463 126.624C120.246 124.841 123.135 124.841 124.918 126.624L155.334 157.041C157.117 158.823 157.117 161.713 155.334 163.495C154.44 164.389 153.272 164.833 152.104 164.833Z" fill="#223324"/>
<path d="M139.937 177C138.769 177 137.601 176.556 136.713 175.662L106.297 145.245C104.514 143.463 104.514 140.573 106.297 138.791C108.079 137.008 110.969 137.008 112.751 138.791L143.168 169.207C144.95 170.99 144.95 173.879 143.168 175.662C142.273 176.556 141.105 177 139.937 177Z" fill="#223324"/>
<path d="M54.7709 91.8333C53.6029 91.8333 52.4349 91.3892 51.5467 90.495L43.5775 82.5258C41.7951 80.7434 41.7951 77.8538 43.5775 76.0714C45.36 74.289 48.2495 74.289 50.032 76.0714L58.0011 84.0406C59.7835 85.823 59.7835 88.7126 58.0011 90.495C57.1069 91.3892 55.9389 91.8333 54.7709 91.8333Z" fill="#223324"/>
<path d="M66.9375 79.6667C65.7695 79.6667 64.6015 79.2226 63.7133 78.3283L55.7442 70.3592C53.9617 68.5768 53.9617 65.6872 55.7442 63.9048C57.5266 62.1223 60.4162 62.1223 62.1986 63.9048L70.1677 71.8739C71.9502 73.6563 71.9502 76.5459 70.1677 78.3283C69.2735 79.2226 68.1055 79.6667 66.9375 79.6667Z" fill="#223324"/>
<path d="M83.6666 93.634C83.6666 89.1627 84.9624 84.8801 87.4079 81.2544L95.7299 67.7251C92.5057 67.3236 89.1112 68.2543 86.7691 70.6025L50.2691 107.096C48.2677 109.092 47.1666 111.774 47.1666 114.646C47.1666 117.517 48.2677 120.2 50.2691 122.189L65.228 137.154C67.9777 139.904 71.573 141.601 75.2595 141.93L86.4345 143.152L92.8525 149.564C94.8478 151.566 97.5305 152.667 100.396 152.667C103.261 152.667 105.944 151.566 107.939 149.564L129.231 128.279C131.232 126.283 132.333 123.594 132.333 120.729C132.333 119.111 131.95 117.572 131.287 116.167H106.248C93.7954 116.167 83.6666 106.056 83.6666 93.634Z" fill="#223324"/>
<path d="M179.443 89.7407L147.323 37.5517C145.492 34.4492 142.085 32.5208 138.417 32.5208C134.748 32.5208 131.342 34.4492 129.559 37.4787L97.488 89.5825C96.4052 91.1946 95.8334 93.1169 95.8334 95.1487C95.8334 100.867 100.505 105.521 106.248 105.521H170.585C176.328 105.521 181 100.867 181 95.1487C181 93.1169 180.428 91.1946 179.443 89.7407ZM138.417 96.3958C135.059 96.3958 132.333 93.6705 132.333 90.3125C132.333 86.9545 135.059 84.2292 138.417 84.2292C141.775 84.2292 144.5 86.9545 144.5 90.3125C144.5 93.6705 141.775 96.3958 138.417 96.3958ZM144.5 72.0625C144.5 75.4205 141.781 78.1458 138.417 78.1458C135.053 78.1458 132.333 75.4205 132.333 72.0625V53.8125C132.333 50.4545 135.053 47.7292 138.417 47.7292C141.781 47.7292 144.5 50.4545 144.5 53.8125V72.0625Z" fill="#11C76F"/>
</g>
<defs>
<clipPath id="clip0">
<rect width="146" height="146" fill="white" transform="translate(35 31)"/>
</clipPath>
</defs>
</svg>
