<svg width="147" height="178" viewBox="0 0 147 178" fill="none" xmlns="http://www.w3.org/2000/svg">
<path d="M16.4447 174.557C21.0331 179.145 28.5057 179.15 33.0986 174.557L63.5245 144.132C56.9179 139.753 51.2473 134.082 46.8676 127.475L16.4447 157.903C11.8518 162.496 11.8518 169.964 16.4447 174.557Z" fill="black"/>
<path d="M95.9648 67.5547C80.8137 67.5547 68.4844 79.884 68.4844 95.0352C68.4844 110.186 80.8137 122.516 95.9648 122.516C111.116 122.516 123.445 110.186 123.445 95.0352C123.445 79.884 111.116 67.5547 95.9648 67.5547ZM106.592 100.111C108.125 101.645 108.125 104.129 106.592 105.663C105.059 107.196 102.574 107.196 101.041 105.663L95.9648 100.586L90.8888 105.663C89.3554 107.196 86.8709 107.196 85.3375 105.663C83.8041 104.129 83.8041 101.645 85.3375 100.111L90.4135 95.0352L85.3375 89.9591C83.8041 88.4257 83.8041 85.9412 85.3375 84.4078C86.8709 82.8744 89.3554 82.8744 90.8888 84.4078L95.9648 89.4838L101.041 84.4078C102.574 82.8744 105.059 82.8744 106.592 84.4078C108.126 85.9412 108.126 88.4257 106.592 89.9591L101.516 95.0352L106.592 100.111Z" fill="#11C76F"/>
<path d="M95.9648 44C67.8248 44 44.9297 66.8952 44.9297 95.0352C44.9297 123.175 67.8248 146.07 95.9648 146.07C124.105 146.07 147 123.175 147 95.0352C147 66.8952 124.105 44 95.9648 44ZM95.9648 130.367C76.4817 130.367 60.6328 114.518 60.6328 95.0352C60.6328 75.552 76.4817 59.7031 95.9648 59.7031C115.448 59.7031 131.297 75.552 131.297 95.0352C131.297 114.518 115.448 130.367 95.9648 130.367Z" fill="black"/>
<circle cx="62.5" cy="62.5" r="62.5" fill="#E5E5E5" fill-opacity="0.25"/>
</svg>
